<svg xmlns="http://www.w3.org/2000/svg" viewBox="0 0 194.82 91.68"><defs><style>.cls-1{fill:#010101;}.cls-2{fill:#ad1917;}.cls-3{fill:#1d1d1b;}</style></defs><title>CarpetLogoWideSVGtest2</title><g id="Layer_2" data-name="Layer 2"><g id="Layer_1-2" data-name="Layer 1"><path class="cls-1" d="M49,86.06H4a1,1,0,0,1-1-1V6.57a1,1,0,0,1,1-1H49a1,1,0,0,1,1,1V85.1A1,1,0,0,1,49,86.06ZM5,84.15H48.06V7.53H5Z"/><path class="cls-2" d="M26.51,50.66h0a1,1,0,0,1-.67-.28L22,46.51a1,1,0,0,1,0-1.35l3.87-3.86a1,1,0,0,1,1.35,0l3.87,3.86a1,1,0,0,1,0,1.35l-3.87,3.87A1,1,0,0,1,26.51,50.66ZM24,45.84l2.51,2.51L29,45.84l-2.52-2.52Z"/><path class="cls-2" d="M26.51,30.28a.94.94,0,0,1-.67-.28L22,26.13a1,1,0,0,1,0-1.35l3.87-3.86a1,1,0,0,1,1.35,0l3.87,3.86a1,1,0,0,1,.28.68,1,1,0,0,1-.28.67L27.19,30A.94.94,0,0,1,26.51,30.28ZM24,25.46,26.51,28,29,25.46l-2.52-2.52Z"/><path class="cls-2" d="M26.51,71h0a1,1,0,0,1-.67-.28L22,66.89a1,1,0,0,1,0-1.35l3.87-3.86a.94.94,0,0,1,1.35,0l3.87,3.86a1,1,0,0,1,0,1.35l-3.87,3.87A1,1,0,0,1,26.51,71ZM24,66.22l2.51,2.51L29,66.22,26.51,63.7Z"/><path class="cls-1" d="M16.79,39.93a1,1,0,0,1-.68-.28l-3.32-3.33a1,1,0,0,1,0-1.35l3.32-3.32a1,1,0,0,1,1.35,0L20.78,35a1,1,0,0,1,0,1.35l-3.32,3.33A1,1,0,0,1,16.79,39.93Zm-2-4.28,2,2,2-2-2-2Z"/><path class="cls-1" d="M16.79,60.3a.94.94,0,0,1-.68-.28L12.79,56.7a1,1,0,0,1,0-1.35L16.11,52a1,1,0,0,1,1.35,0l3.32,3.32a1,1,0,0,1,0,1.35L17.46,60A.92.92,0,0,1,16.79,60.3Zm-2-4.27,2,2,2-2-2-2Z"/><path class="cls-1" d="M36.7,47.19,38.46,49a1,1,0,0,0,.68.28,1,1,0,0,0,.67-.28l2.44-2.45a1,1,0,0,0,0-1.35l-2.44-2.44a1,1,0,0,0-1.35,0L36.7,44.48l-8.83-8.83,8.83-8.84,1.76,1.77a1,1,0,0,0,.68.28,1,1,0,0,0,.67-.28l2.44-2.45a.93.93,0,0,0,.28-.67,1,1,0,0,0-.28-.68l-2.44-2.44a1,1,0,0,0-1.35,0L36.7,24.1l-9.51-9.51a1,1,0,0,0-1.35,0L16.33,24.1l-1.76-1.76a1,1,0,0,0-1.35,0l-2.44,2.44a.94.94,0,0,0,0,1.35l2.44,2.45a1,1,0,0,0,.67.28,1,1,0,0,0,.68-.28l1.76-1.77,8.83,8.84-8.83,8.83-1.76-1.76a1,1,0,0,0-1.35,0l-2.44,2.44a.94.94,0,0,0,0,1.35L13.22,49a.92.92,0,0,0,.67.28.94.94,0,0,0,.68-.28l1.76-1.76L25.16,56l-8.83,8.83L14.57,63.1a1,1,0,0,0-1.35,0l-2.44,2.44a.94.94,0,0,0,0,1.35l2.44,2.44a.92.92,0,0,0,.67.28.94.94,0,0,0,.68-.28l1.76-1.76,9.51,9.51a1,1,0,0,0,1.35,0l9.51-9.51,1.76,1.76a.94.94,0,0,0,.68.28.92.92,0,0,0,.67-.28l2.44-2.44a1,1,0,0,0,0-1.35L39.81,63.1a1,1,0,0,0-1.35,0L36.7,64.86,27.87,56Zm2.44-2.44,1.09,1.09-1.09,1.09-1.09-1.09Zm0-20.38,1.09,1.09-1.09,1.09-1.09-1.09ZM13.89,26.55,12.8,25.46l1.09-1.09L15,25.46Zm12.62-9.93,8.84,8.84L26.51,34.3l-8.83-8.84ZM13.89,46.93,12.8,45.84l1.09-1.09L15,45.84ZM26.51,37l8.84,8.84-8.84,8.84-8.83-8.84ZM13.89,67.31,12.8,66.22l1.09-1.09L15,66.22Zm25.25-2.18,1.09,1.09-1.09,1.09-1.09-1.09ZM26.51,75.06l-8.83-8.84,8.83-8.84,8.84,8.84Z"/><path class="cls-1" d="M36.24,39.93a1,1,0,0,1-.67-.28l-3.32-3.33a1,1,0,0,1,0-1.35l3.32-3.32a1,1,0,0,1,.67-.28h0a1,1,0,0,1,.68.28L40.24,35a1,1,0,0,1,0,1.35l-3.32,3.32A1,1,0,0,1,36.24,39.93Zm-2-4.28,2,2,2-2-2-2Z"/><path class="cls-1" d="M36.24,60.3a.92.92,0,0,1-.67-.28L32.25,56.7a1,1,0,0,1,0-1.35L35.57,52a1,1,0,0,1,.67-.28h0a1,1,0,0,1,.68.28l3.32,3.32a1,1,0,0,1,0,1.35L36.92,60A.94.94,0,0,1,36.24,60.3Zm-2-4.27,2,2,2-2-2-2Z"/><path class="cls-1" d="M44.77,10.16H8.26a1,1,0,0,0-1,1V80.56a1,1,0,0,0,1,1H44.77a1,1,0,0,0,1-1V11.12A1,1,0,0,0,44.77,10.16Zm-6.56,4.28-2,2-2-2,2-2Zm-19.45,0-2,2-2-2,2-2Zm-2,64.77-2-2,2-2,2,2Zm19.45,0-2-2,2-2,2,2Zm7.58.39H38.55l1.69-1.69a1,1,0,0,0,0-1.35l-3.32-3.32a1,1,0,0,0-1.35,0l-3.32,3.32a1,1,0,0,0-.28.68.93.93,0,0,0,.28.67l1.69,1.69H19.09l1.69-1.69a.93.93,0,0,0,.28-.67,1,1,0,0,0-.28-.68l-3.32-3.32a1,1,0,0,0-1.35,0l-3.32,3.32a1,1,0,0,0,0,1.35l1.69,1.69H9.21V12.07h5.27l-1.69,1.69a1,1,0,0,0,0,1.35l3.32,3.32a.94.94,0,0,0,.68.28.92.92,0,0,0,.67-.28l3.32-3.32a1,1,0,0,0,0-1.35l-1.69-1.69H33.94l-1.69,1.69a1,1,0,0,0,0,1.35l3.32,3.32a.92.92,0,0,0,.67.28.94.94,0,0,0,.68-.28l3.32-3.32a1,1,0,0,0,0-1.35l-1.69-1.69h5.27V79.6Z"/><path class="cls-1" d="M52.07,0a1,1,0,0,0-1,1V2.44H49.83V1a1,1,0,1,0-1.91,0V2.44H46.64V1a1,1,0,1,0-1.91,0V2.44H43.44V1a1,1,0,1,0-1.91,0V2.44H40.25V1a1,1,0,1,0-1.91,0V2.44H37.05V1a1,1,0,1,0-1.91,0V2.44H33.86V1A1,1,0,1,0,32,1V2.44H30.66V1a1,1,0,1,0-1.91,0V2.44H27.47V1a1,1,0,1,0-1.91,0V2.44H24.28V1a1,1,0,0,0-1.92,0V2.44H21.08V1a1,1,0,1,0-1.91,0V2.44H17.89V1A1,1,0,0,0,16,1V2.44H14.69V1a1,1,0,1,0-1.91,0V2.44H11.5V1A1,1,0,0,0,9.58,1V2.44H8.3V1A1,1,0,1,0,6.39,1V2.44H5.11V1A1,1,0,0,0,3.19,1V2.44H1.91V1A1,1,0,1,0,0,1V90.72a1,1,0,1,0,1.91,0V89.23H3.19v1.49a1,1,0,1,0,1.92,0V89.23H6.39v1.49a1,1,0,1,0,1.91,0V89.23H9.58v1.49a1,1,0,1,0,1.92,0V89.23h1.28v1.49a1,1,0,1,0,1.91,0V89.23H16v1.49a1,1,0,0,0,1.92,0V89.23h1.28v1.49a1,1,0,1,0,1.91,0V89.23h1.28v1.49a1,1,0,1,0,1.92,0V89.23h1.28v1.49a1,1,0,1,0,1.91,0V89.23h1.28v1.49a1,1,0,1,0,1.92,0V89.23H32v1.49a1,1,0,1,0,1.91,0V89.23h1.28v1.49a1,1,0,1,0,1.92,0V89.23h1.28v1.49a1,1,0,1,0,1.91,0V89.23h1.28v1.49a1,1,0,0,0,1.92,0V89.23h1.28v1.49a1,1,0,1,0,1.91,0V89.23h1.28v1.49a1,1,0,1,0,1.91,0V89.23h1.29v1.49a1,1,0,1,0,1.91,0V1A1,1,0,0,0,52.07,0ZM1.91,4.36H51.12v83H1.91v-83Z"/><path class="cls-3" d="M96.78,26.57V41H94.71V34.76H87.32V41H85.24V26.57h2.08v6.2h7.39v-6.2Z"/><path class="cls-3" d="M100.88,26.57h9.47v2H103v4.16h6.59v2H103V39h7.67v2h-9.75Z"/><path class="cls-2" d="M112.88,41l.8-1.18,1.35-2,1.65-2.52,1.74-2.63c.57-.86,1.09-1.65,1.57-2.36s.86-1.28,1.16-1.7h-5.74a2.15,2.15,0,0,1-1.15-.34,1.05,1.05,0,0,1-.53-.92V25.86h1.94v.26c0,.23,0,.37.14.4a1.38,1.38,0,0,0,.48.05h8.56L116.46,39H125v2Z"/><path class="cls-3" d="M126.67,41,133,26h.12l6.36,15h-2.41l-1.44-3.63h-5.42L128.74,41ZM131,35.6h4l-1.95-5Z"/><path class="cls-3" d="M141.35,26.57l4,10.06,3.85-10.06h2.47l-6.42,15.12-6.41-15.12Z"/><path class="cls-3" d="M154.52,26.57H164v2h-7.39v4.16h6.59v2h-6.59V39h7.67v2h-9.74Z"/><path class="cls-3" d="M179.1,26.57V41H177V34.76h-7.39V41h-2.07V26.57h2.07v6.2H177v-6.2Z"/><path class="cls-3" d="M73.89,64.41v.52H69.2v-.52l2.22-.24h.27Zm-2-14.33.28.16-.06,2.83v7.67c0,1.3,0,3.09.06,4.19H71c0-1.1.06-2.89.06-4.19V51.19l-1.75-.08v-.52Z"/><path class="cls-3" d="M77.55,61.39c0,2.15.69,2.9,2,2.9a4.49,4.49,0,0,0,3.37-1.88h.3v.72h-.68l.49-.2a4.8,4.8,0,0,1-3.8,2.25c-1.75,0-2.67-.93-2.65-3.68l.05-5.41.32.28-2-.24v-.52l2.46-.18.19.22-.09,2.77Zm5.35,3.67-.07-2.32,0-6.64.35.27-2-.23v-.53l2.44-.18.19.22-.07,2.77v6.25l-.39-.5,1.88.24v.52Z"/><path class="cls-3" d="M88.3,64.2l1.73.21v.52H86.38v-.52L88,64.2Zm0-7.92-1.81-.21v-.54h3.94v.54l-1.85.21Zm-1.14,8.65,3.88-5,.4.36L88,64.93Zm1.33-9.4,3,4.28,3.68,5.12H94.05L91,60.5l-3.53-5Zm6.72,0-3.78,4.89-.4-.38,3.35-4.51Zm-.94,8.64,1.84.24v.52H92v-.52l2-.24Zm-.18-7.9-1.74-.2v-.54H96v.54l-1.58.2Z"/><path class="cls-3" d="M99.56,61.39c0,2.15.7,2.9,2,2.9a4.47,4.47,0,0,0,3.36-1.88h.3v.72h-.67l.48-.2a4.78,4.78,0,0,1-3.79,2.25c-1.75,0-2.68-.93-2.66-3.68l0-5.41.33.28L97,56.13v-.52l2.45-.18.19.22-.09,2.77Zm5.36,3.67-.08-2.32,0-6.64.34.27-1.94-.23v-.53l2.44-.18.18.22-.07,2.77v6.25l-.38-.5,1.88.24v.52Z"/><path class="cls-3" d="M110.75,60.74v-1c0-1.27,0-2.3-.06-3.23l-1.75-.07V56l2.43-.63.24.15.12,2.58v2.68c0,1.24,0,3.29.06,4.19h-1.1C110.73,64,110.75,62,110.75,60.74Zm-1.7,3.67,2.08-.24h.27l2.15.24v.52h-4.5Zm2.18-6.36H112l-.34.2c.59-1.77,1.91-3,3.26-3a1.58,1.58,0,0,1,1.36.59c0,.62-.27.93-.83.93a1.59,1.59,0,0,1-1.07-.52l-.46-.38,1,0c-1.43.26-2.42,1.27-3.16,3.17h-.47Z"/><path class="cls-3" d="M116.36,69.08a.86.86,0,0,1,.91-.58,1.86,1.86,0,0,1,1.21.56l.53.45-.56.23-.42-.32c1.28-.27,2.32-1.57,3-3.32l.63-1.73,3.2-8.84h.75l-3.83,10.23c-1.09,2.89-2.33,4.21-3.81,4.21C117.17,70,116.46,69.65,116.36,69.08Zm1.94-12.84-1.85-.19v-.52h4.23v.53l-2.11.18Zm3.18,9.42-4-10.13h1.14L122,64.46Zm3.32-9.42-2-.19v-.52h3.76v.52l-1.49.19Z"/><path class="cls-3" d="M133.38,60.15c0,2.57,1.49,4.22,3.55,4.22a3.8,3.8,0,0,0,3-1.42l.32.22a3.78,3.78,0,0,1-3.51,2c-2.64,0-4.41-2-4.41-5a4.63,4.63,0,0,1,4.55-5,3.37,3.37,0,0,1,3.33,2.29.59.59,0,0,1-.62.53.73.73,0,0,1-.74-.59l-.55-1.59.76.69a3.74,3.74,0,0,0-2.18-.73C134.89,55.87,133.38,57.52,133.38,60.15Z"/><path class="cls-3" d="M145.21,59.8a30.37,30.37,0,0,1,3.18-.83v.51a23.4,23.4,0,0,0-3,.87c-1.69.64-2.23,1.4-2.23,2.25A1.66,1.66,0,0,0,145,64.35c1,0,1.69-.47,2.94-1.65l.3-.27.11.47-.34.35c-1.22,1.31-2.05,1.93-3.36,1.93a2.31,2.31,0,0,1-2.54-2.39C142.12,61.48,143,60.58,145.21,59.8ZM147.9,63V58.5c0-2.1-.71-2.63-2.19-2.63a3.83,3.83,0,0,0-2.23.71l.63-.56-.42,1.51c-.12.42-.34.62-.7.62a.59.59,0,0,1-.63-.55,3.35,3.35,0,0,1,3.54-2.33c2,0,3,.89,3,3.1v4.41c0,1.29.33,1.68.89,1.68a1.23,1.23,0,0,0,.83-.38l.28.35a1.76,1.76,0,0,1-1.41.73C148.45,65.16,148,64.36,147.9,63Z"/><path class="cls-3" d="M153.66,60.74v-1c0-1.27,0-2.3-.06-3.23l-1.74-.07V56l2.42-.63.24.15.12,2.58v2.68c0,1.24,0,3.29.06,4.19h-1.1C153.64,64,153.66,62,153.66,60.74ZM152,64.41l2.07-.24h.27l2.16.24v.52H152Zm2.17-6.36h.74l-.35.2c.59-1.77,1.91-3,3.27-3a1.58,1.58,0,0,1,1.35.59c0,.62-.26.93-.82.93a1.61,1.61,0,0,1-1.08-.52l-.46-.38,1,0c-1.42.26-2.41,1.27-3.15,3.17h-.48Z"/><path class="cls-3" d="M161.86,59.83c0-1.28,0-2.35-.06-3.28l-1.75-.07V56l2.43-.63.24.15.09,1.63,0,.08v6.23l0,.14v2c0,1.3,0,3.1.06,4.2H161.8c0-1.1.06-2.89.06-4.19Zm2.94,9.42v.52h-4.71v-.52l2.1-.24h.27ZM165.74,56a4.32,4.32,0,0,0-3.25,1.81l-.17-.31A4.43,4.43,0,0,1,166,55.27c2.25,0,3.83,1.94,3.83,4.86,0,3.09-1.64,5.05-4,5.05a3.91,3.91,0,0,1-3.49-2.09l.19-.29a4,4,0,0,0,3.14,1.64c1.67,0,3.1-1.26,3.1-4.24C168.75,57.46,167.48,56,165.74,56Z"/><path class="cls-3" d="M179.78,59a4.22,4.22,0,0,1-.13,1.13H172.3v-.59h5.77c.55,0,.71-.3.71-.87a2.66,2.66,0,0,0-2.67-2.79c-1.78,0-3.26,1.65-3.26,4.14,0,3,1.63,4.36,3.57,4.36a3.87,3.87,0,0,0,3-1.34l.31.28a4.11,4.11,0,0,1-3.53,1.87c-2.39,0-4.41-1.64-4.41-4.94,0-3,2.05-5,4.37-5A3.5,3.5,0,0,1,179.78,59Z"/><path class="cls-3" d="M185.22,64.5a2.65,2.65,0,0,0,1.45-.44l.27.38a2.65,2.65,0,0,1-2,.74c-1.42,0-2.08-.8-2-2.37,0-.41,0-.8,0-1.43V56.23h-2v-.58l2.54-.19-.57.42.37-3.22H184l-.11,3.41v6.7C183.93,64,184.39,64.5,185.22,64.5Zm1.54-9v.7h-3.32v-.7Z"/><path class="cls-3" d="M188.36,64.51l-.07-2.08H189l.4,2.18-.65-.27v-.48a4.21,4.21,0,0,0,2.56.72c1.72,0,2.57-.78,2.57-1.85s-.53-1.43-2-2l-.93-.34c-1.43-.52-2.37-1.26-2.37-2.59s1.14-2.56,3.2-2.56a4.75,4.75,0,0,1,2.7.8l-.06,1.87h-.66l-.27-2,.48.28v.39a3.64,3.64,0,0,0-2.24-.77c-1.48,0-2.2.74-2.2,1.72s.61,1.42,2,1.92l.84.31c1.87.69,2.55,1.49,2.55,2.7,0,1.42-1.15,2.66-3.57,2.66A6.46,6.46,0,0,1,188.36,64.51Z"/></g></g></svg>